<svg id="Filled" height="512" viewBox="0 0 512 512" width="512" xmlns="http://www.w3.org/2000/svg"><path d="m200 128v256h-160v-80a64.41 64.41 0 0 1 2.01-16c5.94-23.04 22.7-42.68 45.99-48l23.1-80 2.27-8.63a32.031 32.031 0 0 1 30.77-23.37z" fill="#eb423f"/><path d="m200 272h288v112h-288z" fill="#d13330"/><path d="m72 288v32h-32v-16a64.41 64.41 0 0 1 2.01-16z" fill="#f7b030"/><path d="m456 320h32v32h-32z" fill="#f7b030"/><path d="m40 352h448a0 0 0 0 1 0 0v32a0 0 0 0 1 0 0h-448a16 16 0 0 1 -16-16 16 16 0 0 1 16-16z" fill="#95573a"/><circle cx="376" cy="368" fill="#4f5659" r="48"/><circle cx="128" cy="368" fill="#4f5659" r="48"/><circle cx="128" cy="368" fill="#6a7073" r="16"/><circle cx="376" cy="368" fill="#6a7073" r="16"/><path d="m200 96h288v176h-288z" fill="#95573a"/><path d="m111.1 160-13.86 48h70.76v-48z" fill="#e9eef2"/><path d="m152 280h16a8 8 0 0 0 0-16h-16a8 8 0 0 0 0 16z"/><path d="m40 392h37.414a55.983 55.983 0 0 0 101.172 0h146.828a55.983 55.983 0 0 0 101.172 0h61.414a8 8 0 0 0 8-8v-288a8 8 0 0 0 -8-8h-288a8 8 0 0 0 -8 8v24h-47.862a40.194 40.194 0 0 0 -38.46 29.172l-24.806 86.661a72.11 72.11 0 0 0 -48.872 68.167v41.376a24 24 0 0 0 8 46.624zm88 16a40 40 0 1 1 40-40 40.045 40.045 0 0 1 -40 40zm248 0a40 40 0 1 1 40-40 40.045 40.045 0 0 1 -40 40zm104-32h-48.581a55.368 55.368 0 0 0 0-16h48.581zm0-32h-16v-16h16zm-272-240h272v160h-272zm0 176h272v32h-24a8 8 0 0 0 -8 8v24h-21.414a55.983 55.983 0 0 0 -101.172 0h-117.414zm112.581 80a55.368 55.368 0 0 0 0 16h-137.162a55.368 55.368 0 0 0 0-16zm-203.65-192h43.069v32h-52.229zm-13.74 48h64.809a8 8 0 0 0 8-8v-48a8 8 0 0 0 -8-8h-46.423a24.122 24.122 0 0 1 22.561-16h47.862v96h-88c-1.837 0-3.651.092-5.454.228zm-54.61 80h15.419v16h-16s.205-13.386.581-16zm-.581 32h24a8 8 0 0 0 8-8v-32a8 8 0 0 0 -8-8h-18.586a56.069 56.069 0 0 1 50.586-32h88v96h-13.414a55.983 55.983 0 0 0 -101.172 0h-29.414zm-8 32h32.581a55.368 55.368 0 0 0 0 16h-32.581a8 8 0 0 1 0-16z"/><path d="m128 344a24 24 0 1 0 24 24 24.027 24.027 0 0 0 -24-24zm0 32a8 8 0 1 1 8-8 8.009 8.009 0 0 1 -8 8z"/><path d="m376 344a24 24 0 1 0 24 24 24.027 24.027 0 0 0 -24-24zm0 32a8 8 0 1 1 8-8 8.009 8.009 0 0 1 -8 8z"/><path d="m344 136a8 8 0 0 0 -8 8v80a8 8 0 0 0 16 0v-80a8 8 0 0 0 -8-8z"/><path d="m296 136a8 8 0 0 0 -8 8v80a8 8 0 0 0 16 0v-80a8 8 0 0 0 -8-8z"/><path d="m248 136a8 8 0 0 0 -8 8v80a8 8 0 0 0 16 0v-80a8 8 0 0 0 -8-8z"/><path d="m392 136a8 8 0 0 0 -8 8v80a8 8 0 0 0 16 0v-80a8 8 0 0 0 -8-8z"/><path d="m440 136a8 8 0 0 0 -8 8v80a8 8 0 0 0 16 0v-80a8 8 0 0 0 -8-8z"/></svg>