<?xml version="1.0" encoding="UTF-8" standalone="no"?>
<svg
   xmlns:dc="http://purl.org/dc/elements/1.1/"
   xmlns:cc="http://creativecommons.org/ns#"
   xmlns:rdf="http://www.w3.org/1999/02/22-rdf-syntax-ns#"
   xmlns:svg="http://www.w3.org/2000/svg"
   xmlns="http://www.w3.org/2000/svg"
   xmlns:sodipodi="http://sodipodi.sourceforge.net/DTD/sodipodi-0.dtd"
   xmlns:inkscape="http://www.inkscape.org/namespaces/inkscape"
   version="1.1"
   x="0"
   y="0"
   width="511.5"
   height="775.5"
   viewBox="0, 0, 511.5, 775.5"
   id="svg149834"
   sodipodi:docname="publicdomainq-liberty.svg"
   inkscape:version="0.92.2 2405546, 2018-03-11">
  <metadata
     id="metadata149840">
    <rdf:RDF>
      <cc:Work
         rdf:about="">
        <dc:format>image/svg+xml</dc:format>
        <dc:type
           rdf:resource="http://purl.org/dc/dcmitype/StillImage" />
      </cc:Work>
    </rdf:RDF>
  </metadata>
  <defs
     id="defs149838" />
  <sodipodi:namedview
     pagecolor="#ffffff"
     bordercolor="#666666"
     borderopacity="1"
     objecttolerance="10"
     gridtolerance="10"
     guidetolerance="10"
     inkscape:pageopacity="0"
     inkscape:pageshadow="2"
     inkscape:window-width="1742"
     inkscape:window-height="899"
     id="namedview149836"
     showgrid="false"
     inkscape:zoom="0.41134752"
     inkscape:cx="270.99027"
     inkscape:cy="381.36601"
     inkscape:window-x="0"
     inkscape:window-y="23"
     inkscape:window-maximized="0"
     inkscape:current-layer="svg149834" />
  <g
     id="Layer_1">
    <path
       d="M180.189,380.759 L142.379,471.716 L170.981,492.155 L159.749,509.526 L175.074,551.427 L157.724,555.51 C157.724,555.51 152.609,732.306 149.517,736.389 C146.459,740.479 130.112,765.002 130.112,765.002 L466.324,765.002 C466.324,765.002 425.457,729.247 420.341,722.088 C415.225,714.926 402.958,594.353 402.958,594.353 C402.958,594.353 432.596,596.379 448.944,578.005 C465.291,559.602 473.465,507.489 473.465,507.489 L472.462,475.806 L494.928,444.125 L461.21,423.674 C461.21,423.674 453.036,381.792 437.711,362.375 C437.711,362.375 464.268,316.391 465.291,300.042 C466.324,283.685 452.003,253.026 452.003,253.026 L493.904,238.713 L441.804,232.596 L430.572,203.972 L493.904,162.08 L409.109,171.278 L383.553,147.768 L444.863,61.926 L348.801,116.094 L322.223,110.99 L304.874,31.278 L283.41,106.899 L239.462,113.016 L175.074,50.684 L207.789,131.42 L182.246,160.034 L121.938,153.896 L166.899,188.657 C166.899,188.657 120.915,229.517 117.857,270.407 C117.857,270.407 142.379,373.607 180.189,380.759"
       fill="#A1CFCC"
       id="path149807" />
    <path
       style="fill-opacity:0;stroke:#563e26;stroke-width:13.5;stroke-linecap:round;stroke-linejoin:round;stroke-miterlimit:4;stroke-dasharray:none;paint-order:normal"
       d="M 407.052,373.607 C 339.604,404.268 170.98,399.669 147.988,356.754 124.996,313.829 172.51,255.588 172.51,255.588 c 15.80072,-2.12716 76.655,-18.405 98.118,-41.397 0,0 98.106,64.389 139.482,70.518 z"
       id="path149890" />
    <path
       style="fill-opacity:0;stroke:#563e26;stroke-width:13.5;stroke-linecap:round;stroke-linejoin:round;stroke-miterlimit:4;stroke-dasharray:none;paint-order:normal"
       d="m 159.54417,193.8336 c 0,0 54.36183,-31.7536 132.54583,-28.6846 78.174,3.058 153.267,91.968 153.267,91.968 0,0 -30.639,-142.562 -148.678,-150.218 -88.58577,-5.75635 -124.65404,55.84817 -137.13483,86.9346"
       id="path149888"
       inkscape:connector-curvature="0"
       sodipodi:nodetypes="ccccc" />
    <path
       style="fill-opacity:0;stroke:#563e26;stroke-width:13.5;stroke-linecap:round;stroke-linejoin:round;stroke-miterlimit:4;stroke-dasharray:none;paint-order:normal"
       d="m 281.353,105.359 21.464,-76.634 19.933,78.174"
       id="path149886" />
    <path
       style="fill-opacity:0;stroke:#563e26;stroke-width:13.5;stroke-linecap:round;stroke-linejoin:round;stroke-miterlimit:4;stroke-dasharray:none;paint-order:normal"
       d="m 347.271,116.094 101.178,-59.79 -64.896,87.381"
       id="path149884" />
    <path
       style="fill-opacity:0;stroke:#563e26;stroke-width:13.5;stroke-linecap:round;stroke-linejoin:round;stroke-miterlimit:4;stroke-dasharray:none;paint-order:normal"
       d="m 410.11,172.806 90.438,-15.336 -71.011,45.489"
       id="path149882" />
    <path
       style="fill-opacity:0;stroke:#563e26;stroke-width:13.5;stroke-linecap:round;stroke-linejoin:round;stroke-miterlimit:4;stroke-dasharray:none;paint-order:normal"
       d="m 440.769,232.596 52.132,4.587 -47.544,19.934"
       id="path149880" />
    <path
       style="fill-opacity:0;stroke:#563e26;stroke-width:13.5;stroke-linecap:round;stroke-linejoin:round;stroke-miterlimit:4;stroke-dasharray:none;paint-order:normal"
       d="m 235.369,113.016 -68.977,-68.977 36.789,85.852"
       id="path149878" />
    <path
       style="fill-opacity:0;stroke:#563e26;stroke-width:13.5;stroke-linecap:round;stroke-linejoin:round;stroke-miterlimit:4;stroke-dasharray:none;paint-order:normal"
       d="m 174.072,160.539 -69.009,-7.656 56.721,36.786"
       id="path149876" />
    <path
       style="fill-opacity:0;stroke:#563e26;stroke-width:13.5;stroke-linecap:round;stroke-linejoin:round;stroke-miterlimit:4;stroke-dasharray:none;paint-order:normal"
       d="m 251.716,395.07 c 0,0 7.152,29.637 32.696,27.591 25.555,-2.046 43.96,-28.625 43.96,-28.625"
       id="path149874" />
    <path
       style="fill-opacity:0;stroke:#563e26;stroke-width:13.5;stroke-linecap:round;stroke-linejoin:round;stroke-miterlimit:4;stroke-dasharray:none;paint-order:normal"
       d="m 194.5,425.73 c -0.001,11.74552 -23.52,65.477 -34.752,80.737 l 8.174,42.916"
       id="path149872"
       inkscape:connector-curvature="0"
       sodipodi:nodetypes="ccc" />
    <path
       style="fill-opacity:0;stroke:#563e26;stroke-width:13.5;stroke-linecap:round;stroke-linejoin:round;stroke-miterlimit:4;stroke-dasharray:none;paint-order:normal"
       d="m 370.264,388.943 c -0.001,0 -76.644,91.968 -133.861,127.732 -57.249,35.777 -79.713,37.811 -79.713,37.811 l -4.082,159.417 c 0,0 110.342,-22.476 124.664,-33.729 14.311,-11.232 23.488,-32.696 52.102,-30.648 28.635,2.044 24.542,-31.683 50.097,-33.72 25.544,-2.046 27.581,14.301 27.581,14.301 L 382.53,383.838"
       id="path149870" />
    <path
       style="fill-opacity:0;stroke:#563e26;stroke-width:13.5;stroke-linecap:round;stroke-linejoin:round;stroke-miterlimit:4;stroke-dasharray:none;paint-order:normal"
       d="m 356.974,473.75 c 0,0 -4.08,145.125 -19.405,170.669"
       id="path149868" />
    <path
       style="fill-opacity:0;stroke:#563e26;stroke-width:13.5;stroke-linecap:round;stroke-linejoin:round;stroke-miterlimit:4;stroke-dasharray:none;paint-order:normal"
       d="m 322.222,530.988 c 0,0 -29.637,115.479 -57.216,153.278"
       id="path149866" />
    <path
       style="fill-opacity:0;stroke:#563e26;stroke-width:13.5;stroke-linecap:round;stroke-linejoin:round;stroke-miterlimit:4;stroke-dasharray:none;paint-order:normal"
       d="m 394.785,465.576 47.019,-55.18 51.097,33.729 -24.552,32.695"
       id="path149864" />
    <path
       style="fill-opacity:0;stroke:#563e26;stroke-width:13.5;stroke-linecap:round;stroke-linejoin:round;stroke-miterlimit:4;stroke-dasharray:none;paint-order:normal"
       d="m 464.161,511.572 c -8.836,15.768 -24.183,23.952 -34.255,18.309 -10.092,-5.653 -11.127,-23.014 -2.321,-38.77 8.84,-15.758 24.185,-23.952 34.278,-18.288 10.073,5.643 11.127,22.992 2.298,38.749 z"
       id="path149862" />
    <path
       style="fill-opacity:0;stroke:#563e26;stroke-width:13.5;stroke-linecap:round;stroke-linejoin:round;stroke-miterlimit:4;stroke-dasharray:none;paint-order:normal"
       d="M 426.457,527.919 399.9,560.625"
       id="path149860" />
    <path
       style="fill-opacity:0;stroke:#563e26;stroke-width:13.5;stroke-linecap:round;stroke-linejoin:round;stroke-miterlimit:4;stroke-dasharray:none;paint-order:normal"
       d="m 401.937,375.665 c 0,0 28.635,24.52 30.658,40.869"
       id="path149858" />
    <path
       style="fill-opacity:0;stroke:#563e26;stroke-width:13.5;stroke-linecap:round;stroke-linejoin:round;stroke-miterlimit:4;stroke-dasharray:none;paint-order:normal"
       d="m 470.406,505.443 c 0,0 12.265,86.853 -66.413,88.91"
       id="path149856" />
    <path
       style="fill-opacity:0;stroke:#563e26;stroke-width:13.5;stroke-linecap:round;stroke-linejoin:round;stroke-miterlimit:4;stroke-dasharray:none;paint-order:normal"
       d="m 407.052,630.107 c 0,0 7.14,85.831 15.313,96.051 8.207,10.231 39.867,39.868 39.867,39.868 H 126.03 c 0,0 15.346,-19.417 19.426,-26.578 4.061,-7.142 7.152,-25.545 7.152,-25.545"
       id="path149854" />
    <path
       style="fill-opacity:0;stroke:#563e26;stroke-width:13.5;stroke-linecap:round;stroke-linejoin:round;stroke-miterlimit:4;stroke-dasharray:none;paint-order:normal"
       d="m 379.471,615.806 c 0,0 4.082,105.268 14.292,121.615"
       id="path149852" />
    <path
       style="fill-opacity:0;stroke:#563e26;stroke-width:13.5;stroke-linecap:round;stroke-linejoin:round;stroke-miterlimit:4;stroke-dasharray:none;paint-order:normal"
       d="m 353.916,635.223 v 83.795"
       id="path149850" />
    <path
       style="fill-opacity:0;stroke:#563e26;stroke-width:13.5;stroke-linecap:round;stroke-linejoin:round;stroke-miterlimit:4;stroke-dasharray:none;paint-order:normal"
       d="m 301.794,659.744 c 0,0 -6.15,68.472 -14.291,80.735"
       id="path149848" />
    <path
       style="fill-opacity:0;stroke:#563e26;stroke-width:13.5;stroke-linecap:round;stroke-linejoin:round;stroke-miterlimit:4;stroke-dasharray:none;paint-order:normal"
       d="m 222.079,700.625 c 0,0 -10.197,33.708 -18.372,40.869"
       id="path149846" />
    <path
       style="fill-opacity:0;stroke:#563e26;stroke-width:13.5;stroke-linecap:round;stroke-linejoin:round;stroke-miterlimit:4;stroke-dasharray:none;paint-order:normal"
       d="m 236.403,428.789 c 0,0 21.463,43.958 77.646,19.426"
       id="path149844" />
    <path
       style="fill-opacity:0;stroke:#563e26;stroke-width:13.5;stroke-linecap:round;stroke-linejoin:round;stroke-miterlimit:4;stroke-dasharray:none;paint-order:normal"
       d="m 445.357,257.117 c 2.88585,3.95043 21.99,31.693 13.817,63.355 -8.174,31.673 -24.542,40.87 -24.542,40.87 0,0 25.544,27.601 24.542,58.25"
       id="path149809"
       inkscape:connector-curvature="0"
       sodipodi:nodetypes="cccc" />
    <path
       d="M97.416,229.516 L175.074,398.14 L146.458,466.599 C146.458,466.599 79.012,313.332 74.931,294.927 C70.837,276.534 97.416,229.516 97.416,229.516"
       fill="#A1CFCC"
       id="path149811" />
    <path
       d="M175.074,386.897 C175.074,386.897 129.088,332.738 103.533,237.701 M71.872,292.883 C71.872,292.883 129.088,447.194 146.458,463.541"
       fill-opacity="0"
       stroke="#563E26"
       stroke-width="13.5"
       stroke-linecap="round"
       stroke-linejoin="round"
       id="path149813" />
    <path
       d="M10.563,138.57 L131.145,138.57 L121.938,172.288 L18.737,172.288 L10.563,138.57"
       fill="#A1CFCC"
       id="path149815" />
    <path
       d="M41.2,174.345 L101.508,174.345 L101.508,309.229 L41.2,309.229 z"
       fill="#A1CFCC"
       id="path149817" />
    <path
       d="M39.177,136.535 C39.177,136.535 19.738,123.246 24.853,98.724 C29.968,74.193 68.814,57.855 69.816,41.498 L77.989,56.832 L105.59,7.778 C105.59,7.778 120.915,39.452 130.111,54.776 C139.32,70.11 150.552,126.305 103.533,137.547"
       fill="#A1CFCC"
       id="path149819" />
    <path
       d="M10.563,138.57 L131.145,138.57 L121.938,172.288 L18.736,172.288 L10.563,138.57 z M41.2,174.345 L101.508,174.345 L101.508,309.229 L41.2,309.229 z M39.177,136.534 C39.177,136.534 19.738,123.246 24.853,98.724 C29.968,74.193 68.814,57.855 69.816,41.497 L77.989,56.832 L105.59,7.777 C105.59,7.777 120.915,39.451 130.111,54.775 C139.32,70.11 150.552,126.304 103.533,137.547"
       fill-opacity="0"
       stroke="#563E26"
       stroke-width="13.5"
       stroke-linecap="round"
       stroke-linejoin="round"
       id="path149821" />
    <path
       d="M91.068,243.09 C93.936,267.77 81.755,289.455 63.825,291.552 C45.874,293.663 28.999,275.362 26.098,250.706 C23.218,226.026 35.433,204.342 53.362,202.242 C71.292,200.133 88.167,218.432 91.068,243.09"
       fill="#A1CFCC"
       id="path149823" />
    <path
       d="M91.068,243.09 C93.936,267.77 81.754,289.455 63.825,291.552 C45.874,293.663 28.999,275.362 26.098,250.706 C23.218,226.026 35.433,204.342 53.362,202.242 C71.292,200.133 88.167,218.432 91.068,243.09 z M180.189,379.746 C180.189,379.746 165.865,441.054 154.633,455.367 C143.4,469.668 140.341,474.774 140.341,474.774 L163.84,492.155 M158.725,193.752 C158.725,193.752 123.994,223.389 114.798,270.406"
       fill-opacity="0"
       stroke="#563E26"
       stroke-width="13.5"
       stroke-linecap="round"
       stroke-linejoin="round"
       id="path149825" />
    <path
       d="M216.997,298.492 C216.997,311.762 209.898,322.52 201.144,322.52 C192.39,322.52 185.304,311.762 185.304,298.492 C185.304,285.236 192.39,274.488 201.144,274.488 C209.898,274.488 216.997,285.236 216.997,298.492"
       fill="#563E26"
       id="path149827" />
    <path
       d="M368.24,304.63 C368.24,317.889 361.14,328.647 352.387,328.647 C343.633,328.647 336.546,317.889 336.546,304.63 C336.546,291.363 343.633,280.605 352.387,280.605 C361.14,280.605 368.24,291.363 368.24,304.63"
       fill="#563E26"
       id="path149829" />
    <path
       d="M275.215,289.812 C275.215,289.812 263.983,302.079 269.098,311.275 M244.578,334.774 C244.578,334.774 254.775,350.109 273.18,350.109 C291.583,350.109 304.873,335.808 304.873,335.808"
       fill-opacity="0"
       stroke="#563E26"
       stroke-width="13.5"
       stroke-linecap="round"
       stroke-linejoin="round"
       id="path149831" />
  </g>
</svg>
